<svg xmlns="http://www.w3.org/2000/svg" viewBox="0 0 960 1200" role="img" aria-labelledby="title desc">
  <title id="title">Social analytics tools example interface</title>
  <desc id="desc">Illustrated analytics dashboard with charts and impact summary cards.</desc>
  <rect width="960" height="1200" fill="#f6f7fb"/>
  <rect x="52" y="52" width="856" height="1096" rx="42" fill="#ffffff" stroke="#d9dee7"/>
  <rect x="96" y="96" width="768" height="104" rx="30" fill="#f8fafc" stroke="#e2e8f0"/>
  <text x="132" y="158" fill="#111827" font-family="Manrope, Arial, sans-serif" font-size="40" font-weight="800">Social Analytics</text>
  <g fill="#eef2ff" stroke="#dbe2ff">
    <rect x="96" y="244" width="220" height="156" rx="24"/>
    <rect x="370" y="244" width="220" height="156" rx="24"/>
    <rect x="644" y="244" width="220" height="156" rx="24"/>
  </g>
  <g fill="#1f2937" font-family="Manrope, Arial, sans-serif" font-size="22">
    <text x="124" y="294">Communities reached</text>
    <text x="398" y="294">Active usage</text>
    <text x="672" y="294">Program retention</text>
  </g>
  <g fill="#2563eb" font-family="Manrope, Arial, sans-serif" font-size="46" font-weight="800">
    <text x="124" y="354">1.2M</text>
    <text x="398" y="354">78%</text>
    <text x="672" y="354">64%</text>
  </g>
  <rect x="96" y="450" width="768" height="292" rx="28" fill="#f9fbff" stroke="#dbe5f4"/>
  <text x="132" y="506" fill="#111827" font-family="Manrope, Arial, sans-serif" font-size="32" font-weight="800">Impact over time</text>
  <polyline points="150,676 256,626 356,654 470,548 586,570 690,478 810,424" fill="none" stroke="#2563eb" stroke-width="14" stroke-linecap="round" stroke-linejoin="round"/>
  <g fill="#2563eb">
    <circle cx="150" cy="676" r="12"/>
    <circle cx="256" cy="626" r="12"/>
    <circle cx="356" cy="654" r="12"/>
    <circle cx="470" cy="548" r="12"/>
    <circle cx="586" cy="570" r="12"/>
    <circle cx="690" cy="478" r="12"/>
    <circle cx="810" cy="424" r="12"/>
  </g>
  <rect x="96" y="790" width="368" height="274" rx="28" fill="#f8fafc" stroke="#e2e8f0"/>
  <rect x="496" y="790" width="368" height="274" rx="28" fill="#f8fafc" stroke="#e2e8f0"/>
  <text x="128" y="846" fill="#111827" font-family="Manrope, Arial, sans-serif" font-size="28" font-weight="700">Geographic spread</text>
  <text x="528" y="846" fill="#111827" font-family="Manrope, Arial, sans-serif" font-size="28" font-weight="700">Cohort insights</text>
  <g fill="#93c5fd">
    <rect x="128" y="882" width="66" height="140" rx="16"/>
    <rect x="212" y="930" width="66" height="92" rx="16"/>
    <rect x="296" y="900" width="66" height="122" rx="16"/>
  </g>
  <g fill="#c7d2fe">
    <circle cx="602" cy="946" r="86"/>
    <circle cx="744" cy="972" r="52"/>
  </g>
</svg>
